<svg width="33" height="30" viewBox="0 0 33 30" fill="none" xmlns="http://www.w3.org/2000/svg">
<path d="M11.9167 0C15.0772 0 18.1082 1.15276 20.343 3.20468C22.5778 5.2566 23.8333 8.0396 23.8333 10.9415C23.8333 13.6516 22.7517 16.1429 20.9733 18.0618L21.4683 18.5163H22.9167L32.0833 26.9328L29.3333 29.4578L20.1667 21.0413V19.7115L19.6717 19.257C17.5817 20.8898 14.8683 21.8829 11.9167 21.8829C8.75617 21.8829 5.72512 20.7302 3.49031 18.6782C1.2555 16.6263 0 13.8433 0 10.9415C0 8.0396 1.2555 5.2566 3.49031 3.20468C5.72512 1.15276 8.75617 0 11.9167 0ZM11.9167 3.3666C7.33333 3.3666 3.66667 6.73321 3.66667 10.9415C3.66667 15.1497 7.33333 18.5163 11.9167 18.5163C16.5 18.5163 20.1667 15.1497 20.1667 10.9415C20.1667 6.73321 16.5 3.3666 11.9167 3.3666Z" fill="black"/>
</svg>
