<svg width="32" height="41" viewBox="0 0 32 41" fill="none" xmlns="http://www.w3.org/2000/svg">
<path d="M16 23.2263C13.6425 23.2263 11.3816 22.2067 9.71461 20.3918C8.04762 18.5768 7.11111 16.1153 7.11111 13.5487H10.6667C10.6667 15.0886 11.2286 16.5656 12.2288 17.6545C13.229 18.7435 14.5855 19.3552 16 19.3552C17.4145 19.3552 18.771 18.7435 19.7712 17.6545C20.7714 16.5656 21.3333 15.0886 21.3333 13.5487H24.8889C24.8889 16.1153 23.9524 18.5768 22.2854 20.3918C20.6184 22.2067 18.3575 23.2263 16 23.2263ZM16 3.87104C17.4145 3.87104 18.771 4.4828 19.7712 5.57175C20.7714 6.66069 21.3333 8.13761 21.3333 9.67761H10.6667C10.6667 8.13761 11.2286 6.66069 12.2288 5.57175C13.229 4.4828 14.5855 3.87104 16 3.87104ZM28.4444 9.67761H24.8889C24.8889 8.40673 24.659 7.14829 24.2123 5.97415C23.7656 4.80001 23.1108 3.73315 22.2854 2.83451C21.46 1.93586 20.4801 1.22301 19.4016 0.736664C18.3232 0.250319 17.1673 0 16 0C13.6425 0 11.3816 1.0196 9.71461 2.83451C8.04762 4.64941 7.11111 7.11095 7.11111 9.67761H3.55556C1.58222 9.67761 0 11.4002 0 13.5487V36.7749C0 37.8016 0.374602 38.7862 1.0414 39.5121C1.70819 40.2381 2.61256 40.646 3.55556 40.646H28.4444C29.3874 40.646 30.2918 40.2381 30.9586 39.5121C31.6254 38.7862 32 37.8016 32 36.7749V13.5487C32 11.4002 30.4 9.67761 28.4444 9.67761Z" fill="white"/>
</svg>
