<svg width="32" height="43" viewBox="0 0 32 43" fill="none" xmlns="http://www.w3.org/2000/svg">
<path d="M16 24.5037C13.6425 24.5037 11.3816 23.4281 9.71461 21.5133C8.04762 19.5986 7.11111 17.0017 7.11111 14.2938H10.6667C10.6667 15.9185 11.2286 17.4767 12.2288 18.6255C13.229 19.7744 14.5855 20.4198 16 20.4198C17.4145 20.4198 18.771 19.7744 19.7712 18.6255C20.7714 17.4767 21.3333 15.9185 21.3333 14.2938H24.8889C24.8889 17.0017 23.9524 19.5986 22.2854 21.5133C20.6184 23.4281 18.3575 24.5037 16 24.5037ZM16 4.08396C17.4145 4.08396 18.771 4.72937 19.7712 5.8782C20.7714 7.02704 21.3333 8.58519 21.3333 10.2099H10.6667C10.6667 8.58519 11.2286 7.02704 12.2288 5.8782C13.229 4.72937 14.5855 4.08396 16 4.08396ZM28.4444 10.2099H24.8889C24.8889 8.86911 24.659 7.54145 24.2123 6.30273C23.7656 5.06401 23.1108 3.93848 22.2854 2.99041C21.46 2.04233 20.4801 1.29028 19.4016 0.777182C18.3232 0.264087 17.1673 0 16 0C13.6425 0 11.3816 1.07568 9.71461 2.99041C8.04762 4.90513 7.11111 7.50206 7.11111 10.2099H3.55556C1.58222 10.2099 0 12.0273 0 14.2938V38.7976C0 39.8807 0.374602 40.9195 1.0414 41.6854C1.70819 42.4513 2.61256 42.8815 3.55556 42.8815H28.4444C29.3874 42.8815 30.2918 42.4513 30.9586 41.6854C31.6254 40.9195 32 39.8807 32 38.7976V14.2938C32 12.0273 30.4 10.2099 28.4444 10.2099Z" fill="white"/>
</svg>
