<svg width="33" height="38" viewBox="0 0 33 38" fill="none" xmlns="http://www.w3.org/2000/svg">
<path d="M11.9167 0C15.0772 0 18.1082 1.45508 20.343 4.04513C22.5778 6.63519 23.8333 10.1481 23.8333 13.8109C23.8333 17.2318 22.7517 20.3765 20.9733 22.7987L21.4683 23.3724H22.9167L32.0833 33.9962L29.3333 37.1833L20.1667 26.5595V24.8809L19.6717 24.3073C17.5817 26.3683 14.8683 27.6219 11.9167 27.6219C8.75617 27.6219 5.72512 26.1668 3.49031 23.5768C1.2555 20.9867 0 17.4738 0 13.8109C0 10.1481 1.2555 6.63519 3.49031 4.04513C5.72512 1.45508 8.75617 0 11.9167 0ZM11.9167 4.24952C7.33333 4.24952 3.66667 8.49904 3.66667 13.8109C3.66667 19.1228 7.33333 23.3724 11.9167 23.3724C16.5 23.3724 20.1667 19.1228 20.1667 13.8109C20.1667 8.49904 16.5 4.24952 11.9167 4.24952Z" fill="black"/>
</svg>
