<svg width="32" height="34" viewBox="0 0 32 34" fill="none" xmlns="http://www.w3.org/2000/svg">
<path d="M16 19.4126C13.6425 19.4126 11.3816 18.5604 9.71461 17.0435C8.04762 15.5266 7.11111 13.4693 7.11111 11.324H10.6667C10.6667 12.6112 11.2286 13.8456 12.2288 14.7557C13.229 15.6659 14.5855 16.1772 16 16.1772C17.4145 16.1772 18.771 15.6659 19.7712 14.7557C20.7714 13.8456 21.3333 12.6112 21.3333 11.324H24.8889C24.8889 13.4693 23.9524 15.5266 22.2854 17.0435C20.6184 18.5604 18.3575 19.4126 16 19.4126ZM16 3.23544C17.4145 3.23544 18.771 3.74675 19.7712 4.65689C20.7714 5.56704 21.3333 6.80145 21.3333 8.08859H10.6667C10.6667 6.80145 11.2286 5.56704 12.2288 4.65689C13.229 3.74675 14.5855 3.23544 16 3.23544ZM28.4444 8.08859H24.8889C24.8889 7.02638 24.659 5.97457 24.2123 4.99322C23.7656 4.01187 23.1108 3.12019 22.2854 2.36909C21.46 1.618 20.4801 1.0222 19.4016 0.615707C18.3232 0.209218 17.1673 0 16 0C13.6425 0 11.3816 0.852188 9.71461 2.36909C8.04762 3.886 7.11111 5.94336 7.11111 8.08859H3.55556C1.58222 8.08859 0 9.52836 0 11.324V30.7366C0 31.5947 0.374602 32.4177 1.0414 33.0244C1.70819 33.6312 2.61256 33.9721 3.55556 33.9721H28.4444C29.3874 33.9721 30.2918 33.6312 30.9586 33.0244C31.6254 32.4177 32 31.5947 32 30.7366V11.324C32 9.52836 30.4 8.08859 28.4444 8.08859Z" fill="white"/>
</svg>
