<svg width="55" height="55" viewBox="0 0 55 55" fill="none" xmlns="http://www.w3.org/2000/svg">
<path d="M27.5 47.3C20.625 47.3 14.5475 43.78 11 38.5C11.0825 33 22 29.975 27.5 29.975C33 29.975 43.9175 33 44 38.5C40.4525 43.78 34.375 47.3 27.5 47.3ZM27.5 8.25C29.688 8.25 31.7865 9.11919 33.3336 10.6664C34.8808 12.2135 35.75 14.312 35.75 16.5C35.75 18.688 34.8808 20.7865 33.3336 22.3336C31.7865 23.8808 29.688 24.75 27.5 24.75C25.312 24.75 23.2135 23.8808 21.6664 22.3336C20.1192 20.7865 19.25 18.688 19.25 16.5C19.25 14.312 20.1192 12.2135 21.6664 10.6664C23.2135 9.11919 25.312 8.25 27.5 8.25ZM27.5 0C23.8886 0 20.3127 0.711309 16.9762 2.09331C13.6398 3.47532 10.6082 5.50095 8.05456 8.05456C2.89731 13.2118 0 20.2065 0 27.5C0 34.7935 2.89731 41.7882 8.05456 46.9454C10.6082 49.499 13.6398 51.5247 16.9762 52.9067C20.3127 54.2887 23.8886 55 27.5 55C34.7935 55 41.7882 52.1027 46.9454 46.9454C52.1027 41.7882 55 34.7935 55 27.5C55 12.2925 42.625 0 27.5 0Z" fill="#212121"/>
</svg>
