<svg width="56" height="63" viewBox="0 0 56 63" fill="none" xmlns="http://www.w3.org/2000/svg">
<path d="M28 53.5742C21 53.5742 14.812 49.601 11.2 43.6411C11.284 37.4329 22.4 34.0184 28 34.0184C33.6 34.0184 44.716 37.4329 44.8 43.6411C41.188 49.601 35 53.5742 28 53.5742ZM28 9.49591C30.2278 9.49591 32.3644 10.477 33.9397 12.2234C35.515 13.9698 36.4 16.3385 36.4 18.8082C36.4 21.278 35.515 23.6466 33.9397 25.393C32.3644 27.1394 30.2278 28.1206 28 28.1206C25.7722 28.1206 23.6356 27.1394 22.0603 25.393C20.485 23.6466 19.6 21.278 19.6 18.8082C19.6 16.3385 20.485 13.9698 22.0603 12.2234C23.6356 10.477 25.7722 9.49591 28 9.49591ZM28 0.183594C24.323 0.183594 20.682 0.986495 17.2849 2.54645C13.8877 4.10641 10.8011 6.39288 8.20101 9.27531C2.94999 15.0966 0 22.9921 0 31.2247C0 39.4573 2.94999 47.3527 8.20101 53.174C10.8011 56.0564 13.8877 58.3429 17.2849 59.9029C20.682 61.4628 24.323 62.2657 28 62.2657C35.4261 62.2657 42.548 58.9953 47.799 53.174C53.05 47.3527 56 39.4573 56 31.2247C56 14.0589 43.4 0.183594 28 0.183594Z" fill="#212121"/>
</svg>
