<svg width="33" height="33" viewBox="0 0 33 33" fill="none" xmlns="http://www.w3.org/2000/svg">
<path d="M16.5 18.84C14.0688 18.84 11.7373 18.0129 10.0182 16.5408C8.2991 15.0686 7.33333 13.0719 7.33333 10.99H11C11 12.2392 11.5795 13.4372 12.6109 14.3205C13.6424 15.2038 15.0413 15.7 16.5 15.7C17.9587 15.7 19.3576 15.2038 20.3891 14.3205C21.4205 13.4372 22 12.2392 22 10.99H25.6667C25.6667 13.0719 24.7009 15.0686 22.9818 16.5408C21.2627 18.0129 18.9312 18.84 16.5 18.84ZM16.5 3.14C17.9587 3.14 19.3576 3.63623 20.3891 4.51953C21.4205 5.40282 22 6.60083 22 7.85H11C11 6.60083 11.5795 5.40282 12.6109 4.51953C13.6424 3.63623 15.0413 3.14 16.5 3.14ZM29.3333 7.85H25.6667C25.6667 6.81912 25.4296 5.79834 24.9689 4.84593C24.5082 3.89353 23.833 3.02815 22.9818 2.29921C22.1306 1.57027 21.1201 0.992045 20.0079 0.597546C18.8958 0.203046 17.7038 0 16.5 0C14.0688 0 11.7373 0.827051 10.0182 2.29921C8.2991 3.77137 7.33333 5.76805 7.33333 7.85H3.66667C1.63167 7.85 0 9.2473 0 10.99V29.83C0 30.6628 0.386308 31.4615 1.07394 32.0503C1.76157 32.6392 2.69421 32.97 3.66667 32.97H29.3333C30.3058 32.97 31.2384 32.6392 31.9261 32.0503C32.6137 31.4615 33 30.6628 33 29.83V10.99C33 9.2473 31.35 7.85 29.3333 7.85Z" fill="white"/>
</svg>
