<svg width="32" height="40" viewBox="0 0 32 40" fill="none" xmlns="http://www.w3.org/2000/svg">
<path d="M16 22.6444C13.6425 22.6444 11.3816 21.6597 9.71461 19.9069C8.04762 18.1541 7.11111 15.7768 7.11111 13.2979H10.6667C10.6667 14.7852 11.2286 16.2116 12.2288 17.2633C13.229 18.315 14.5855 18.9058 16 18.9058C17.4145 18.9058 18.771 18.315 19.7712 17.2633C20.7714 16.2116 21.3333 14.7852 21.3333 13.2979H24.8889C24.8889 15.7768 23.9524 18.1541 22.2854 19.9069C20.6184 21.6597 18.3575 22.6444 16 22.6444ZM16 3.95148C17.4145 3.95148 18.771 4.54231 19.7712 5.59399C20.7714 6.64567 21.3333 8.07205 21.3333 9.55936H10.6667C10.6667 8.07205 11.2286 6.64567 12.2288 5.59399C13.229 4.54231 14.5855 3.95148 16 3.95148ZM28.4444 9.55936H24.8889C24.8889 8.33196 24.659 7.11658 24.2123 5.98262C23.7656 4.84865 23.1108 3.81831 22.2854 2.95041C21.46 2.08251 20.4801 1.39405 19.4016 0.924348C18.3232 0.454644 17.1673 0.212891 16 0.212891C13.6425 0.212891 11.3816 1.1976 9.71461 2.95041C8.04762 4.70321 7.11111 7.08052 7.11111 9.55936H3.55556C1.58222 9.55936 0 11.223 0 13.2979V35.7295C0 36.721 0.374602 37.6719 1.0414 38.373C1.70819 39.0742 2.61256 39.468 3.55556 39.468H28.4444C29.3874 39.468 30.2918 39.0742 30.9586 38.373C31.6254 37.6719 32 36.721 32 35.7295V13.2979C32 11.223 30.4 9.55936 28.4444 9.55936Z" fill="white"/>
</svg>
