<svg width="33" height="36" viewBox="0 0 33 36" fill="none" xmlns="http://www.w3.org/2000/svg">
<path d="M11.9167 0C15.0772 0 18.1082 1.37922 20.343 3.83424C22.5778 6.28927 23.8333 9.619 23.8333 13.0909C23.8333 16.3334 22.7517 19.3142 20.9733 21.6101L21.4683 22.1539H22.9167L32.0833 32.2238L29.3333 35.2448L20.1667 25.1749V23.5838L19.6717 23.04C17.5817 24.9936 14.8683 26.1819 11.9167 26.1819C8.75617 26.1819 5.72512 24.8026 3.49031 22.3476C1.2555 19.8926 0 16.5629 0 13.0909C0 9.619 1.2555 6.28927 3.49031 3.83424C5.72512 1.37922 8.75617 0 11.9167 0ZM11.9167 4.02798C7.33333 4.02798 3.66667 8.05595 3.66667 13.0909C3.66667 18.1259 7.33333 22.1539 11.9167 22.1539C16.5 22.1539 20.1667 18.1259 20.1667 13.0909C20.1667 8.05595 16.5 4.02798 11.9167 4.02798Z" fill="black"/>
</svg>
