<svg width="33" height="36" viewBox="0 0 33 36" fill="none" xmlns="http://www.w3.org/2000/svg">
<path d="M11.9167 0.973633C15.0772 0.973633 18.1082 2.30566 20.343 4.67668C22.5778 7.0477 23.8333 10.2635 23.8333 13.6166C23.8333 16.7482 22.7517 19.6269 20.9733 21.8443L21.4683 22.3695H22.9167L32.0833 32.0948L29.3333 35.0125L20.1667 25.2871V23.7505L19.6717 23.2253C17.5817 25.112 14.8683 26.2596 11.9167 26.2596C8.75617 26.2596 5.72512 24.9276 3.49031 22.5566C1.2555 20.1856 0 16.9698 0 13.6166C0 10.2635 1.2555 7.0477 3.49031 4.67668C5.72512 2.30566 8.75617 0.973633 11.9167 0.973633ZM11.9167 4.86378C7.33333 4.86378 3.66667 8.75394 3.66667 13.6166C3.66667 18.4793 7.33333 22.3695 11.9167 22.3695C16.5 22.3695 20.1667 18.4793 20.1667 13.6166C20.1667 8.75394 16.5 4.86378 11.9167 4.86378Z" fill="black"/>
</svg>
