<svg width="56" height="62" viewBox="0 0 56 62" fill="none" xmlns="http://www.w3.org/2000/svg">
<path d="M28 52.9057C21 52.9057 14.812 48.9685 11.2 43.0627C11.284 36.9109 22.4 33.5274 28 33.5274C33.6 33.5274 44.716 36.9109 44.8 43.0627C41.188 48.9685 35 52.9057 28 52.9057ZM28 9.22773C30.2278 9.22773 32.3644 10.1999 33.9397 11.9305C35.515 13.661 36.4 16.0081 36.4 18.4555C36.4 20.9028 35.515 23.2499 33.9397 24.9805C32.3644 26.711 30.2278 27.6832 28 27.6832C25.7722 27.6832 23.6356 26.711 22.0603 24.9805C20.485 23.2499 19.6 20.9028 19.6 18.4555C19.6 16.0081 20.485 13.661 22.0603 11.9305C23.6356 10.1999 25.7722 9.22773 28 9.22773ZM28 0C24.323 0 20.682 0.795608 17.2849 2.3414C13.8877 3.88719 10.8011 6.15289 8.20101 9.00913C2.94999 14.7776 0 22.6013 0 30.7591C0 38.9169 2.94999 46.7406 8.20101 52.5091C10.8011 55.3653 13.8877 57.631 17.2849 59.1768C20.682 60.7226 24.323 61.5182 28 61.5182C35.4261 61.5182 42.548 58.2775 47.799 52.5091C53.05 46.7406 56 38.9169 56 30.7591C56 13.7493 43.4 0 28 0Z" fill="#212121"/>
</svg>
