<svg width="56" height="60" viewBox="0 0 56 60" fill="none" xmlns="http://www.w3.org/2000/svg">
<path d="M28 51.5822C21 51.5822 14.812 47.7797 11.2 42.0761C11.284 36.1347 22.4 32.867 28 32.867C33.6 32.867 44.716 36.1347 44.8 42.0761C41.188 47.7797 35 51.5822 28 51.5822ZM28 9.3988C30.2278 9.3988 32.3644 10.3377 33.9397 12.0091C35.515 13.6804 36.4 15.9472 36.4 18.3108C36.4 20.6744 35.515 22.9412 33.9397 24.6125C32.3644 26.2838 30.2278 27.2228 28 27.2228C25.7722 27.2228 23.6356 26.2838 22.0603 24.6125C20.485 22.9412 19.6 20.6744 19.6 18.3108C19.6 15.9472 20.485 13.6804 22.0603 12.0091C23.6356 10.3377 25.7722 9.3988 28 9.3988ZM28 0.486816C24.323 0.486816 20.682 1.2552 17.2849 2.7481C13.8877 4.24099 10.8011 6.42917 8.20101 9.18768C2.94999 14.7587 0 22.3147 0 30.1934C0 38.0721 2.94999 45.6281 8.20101 51.1992C10.8011 53.9577 13.8877 56.1459 17.2849 57.6388C20.682 59.1316 24.323 59.9 28 59.9C35.4261 59.9 42.548 56.7702 47.799 51.1992C53.05 45.6281 56 38.0721 56 30.1934C56 13.7657 43.4 0.486816 28 0.486816Z" fill="#212121"/>
</svg>
