<svg width="32" height="42" viewBox="0 0 32 42" fill="none" xmlns="http://www.w3.org/2000/svg">
<path d="M16 23.7048C13.6425 23.7048 11.3816 22.6758 9.71461 20.8443C8.04762 19.0128 7.11111 16.5287 7.11111 13.9385H10.6667C10.6667 15.4926 11.2286 16.9831 12.2288 18.082C13.229 19.1809 14.5855 19.7983 16 19.7983C17.4145 19.7983 18.771 19.1809 19.7712 18.082C20.7714 16.9831 21.3333 15.4926 21.3333 13.9385H24.8889C24.8889 16.5287 23.9524 19.0128 22.2854 20.8443C20.6184 22.6758 18.3575 23.7048 16 23.7048ZM16 4.17215C17.4145 4.17215 18.771 4.78952 19.7712 5.88845C20.7714 6.98737 21.3333 8.47783 21.3333 10.0319H10.6667C10.6667 8.47783 11.2286 6.98737 12.2288 5.88845C13.229 4.78952 14.5855 4.17215 16 4.17215ZM28.4444 10.0319H24.8889C24.8889 8.74942 24.659 7.47944 24.2123 6.29454C23.7656 5.10963 23.1108 4.033 22.2854 3.12611C21.46 2.21923 20.4801 1.49985 19.4016 1.00904C18.3232 0.518238 17.1673 0.265625 16 0.265625C13.6425 0.265625 11.3816 1.29457 9.71461 3.12611C8.04762 4.95765 7.11111 7.44176 7.11111 10.0319H3.55556C1.58222 10.0319 0 11.7704 0 13.9385V37.3776C0 38.4137 0.374602 39.4074 1.0414 40.14C1.70819 40.8726 2.61256 41.2842 3.55556 41.2842H28.4444C29.3874 41.2842 30.2918 40.8726 30.9586 40.14C31.6254 39.4074 32 38.4137 32 37.3776V13.9385C32 11.7704 30.4 10.0319 28.4444 10.0319Z" fill="white"/>
</svg>
