<svg width="33" height="36" viewBox="0 0 33 36" fill="none" xmlns="http://www.w3.org/2000/svg">
<path d="M11.9167 0.28418C15.0772 0.28418 18.1082 1.67604 20.343 4.15357C22.5778 6.6311 23.8333 9.99135 23.8333 13.4951C23.8333 16.7674 22.7517 19.7754 20.9733 22.0924L21.4683 22.6411H22.9167L32.0833 32.8034L29.3333 35.8521L20.1667 25.6898V24.0842L19.6717 23.5354C17.5817 25.5069 14.8683 26.706 11.9167 26.706C8.75617 26.706 5.72512 25.3142 3.49031 22.8366C1.2555 20.3591 0 16.9989 0 13.4951C0 9.99135 1.2555 6.6311 3.49031 4.15357C5.72512 1.67604 8.75617 0.28418 11.9167 0.28418ZM11.9167 4.34908C7.33333 4.34908 3.66667 8.41398 3.66667 13.4951C3.66667 18.5762 7.33333 22.6411 11.9167 22.6411C16.5 22.6411 20.1667 18.5762 20.1667 13.4951C20.1667 8.41398 16.5 4.34908 11.9167 4.34908Z" fill="black"/>
</svg>
